<svg width="600" height="286" viewBox="0 0 600 286" fill="none" xmlns="http://www.w3.org/2000/svg">
<g clip-path="url(#clip0_504_383)">
<path d="M184.197 266.274C179.545 266.274 175.315 265.127 171.508 262.834C167.786 260.456 164.826 257.313 162.626 253.407C160.427 249.5 159.327 245.126 159.327 240.284L159.454 200.536C159.454 195.865 160.511 191.618 162.626 187.796C164.826 183.889 167.786 180.789 171.508 178.495C175.315 176.118 179.545 174.928 184.197 174.928C188.849 174.928 193.037 176.075 196.759 178.368C200.481 180.661 203.441 183.762 205.641 187.668C207.841 191.49 208.94 195.779 208.94 200.536V206.396C208.94 206.736 208.771 206.906 208.433 206.906H194.221C193.883 206.906 193.714 206.736 193.714 206.396V200.536C193.714 197.733 192.783 195.312 190.922 193.274C189.146 191.235 186.904 190.216 184.197 190.216C181.152 190.216 178.825 191.278 177.218 193.401C175.611 195.44 174.807 197.818 174.807 200.536V240.284C174.807 243.427 175.696 245.975 177.472 247.928C179.333 249.882 181.575 250.859 184.197 250.859C186.904 250.859 189.146 249.797 190.922 247.674C192.783 245.465 193.714 243.003 193.714 240.284V234.424C193.714 234.085 193.883 233.914 194.221 233.914H208.559C208.898 233.914 209.067 234.085 209.067 234.424V240.284C209.067 245.126 207.925 249.5 205.641 253.407C203.441 257.313 200.481 260.456 196.759 262.834C193.037 265.127 188.849 266.274 184.197 266.274ZM218.853 265C218.515 265 218.346 264.788 218.346 264.363L218.6 176.839C218.6 176.5 218.768 176.33 219.107 176.33H244.738C249.306 176.33 253.494 177.476 257.3 179.769C261.191 181.978 264.279 184.993 266.563 188.815C268.847 192.552 269.989 196.798 269.989 201.555C269.989 204.697 269.523 207.543 268.593 210.091C267.662 212.554 266.563 214.677 265.294 216.461C264.025 218.16 262.883 219.434 261.868 220.283C266.436 225.379 268.72 231.366 268.72 238.246L268.847 264.363C268.847 264.788 268.635 265 268.212 265H253.874C253.535 265 253.367 264.873 253.367 264.618V238.246C253.367 235.188 252.267 232.556 250.068 230.347C247.952 228.054 245.33 226.907 242.201 226.907H233.826L233.699 264.363C233.699 264.788 233.53 265 233.192 265H218.853ZM233.826 211.619H244.738C247.36 211.619 249.687 210.643 251.717 208.689C253.747 206.736 254.762 204.358 254.762 201.555C254.762 198.837 253.747 196.502 251.717 194.548C249.771 192.594 247.445 191.618 244.738 191.618H233.826V211.619ZM275.245 264.363L290.979 176.839C291.063 176.5 291.275 176.33 291.613 176.33H310.012C310.35 176.33 310.561 176.5 310.647 176.839L325.746 264.363C325.83 264.788 325.661 265 325.239 265H311.154C310.815 265 310.604 264.788 310.52 264.363L309.124 255.063H291.867L290.471 264.363C290.386 264.788 290.175 265 289.837 265H275.753C275.414 265 275.245 264.788 275.245 264.363ZM294.405 241.431H306.586L301.384 205.632L300.622 200.918L300.115 205.632L294.405 241.431ZM352.802 266.274C348.234 266.274 344.046 265.127 340.24 262.834C336.518 260.456 333.515 257.356 331.231 253.534C329.031 249.627 327.932 245.338 327.932 240.667V234.806C327.932 234.381 328.143 234.169 328.566 234.169H342.778C343.116 234.169 343.285 234.381 343.285 234.806V240.667C343.285 243.469 344.215 245.89 346.077 247.928C347.937 249.882 350.179 250.859 352.802 250.859C355.424 250.859 357.665 249.839 359.527 247.801C361.388 245.763 362.318 243.385 362.318 240.667C362.318 237.524 360.288 234.806 356.228 232.513C354.874 231.749 352.759 230.559 349.883 228.946C347.007 227.332 344.3 225.804 341.763 224.359C337.11 221.641 333.642 218.244 331.358 214.167C329.158 210.006 328.059 205.334 328.059 200.153C328.059 195.397 329.201 191.151 331.485 187.413C333.769 183.591 336.771 180.577 340.494 178.368C344.3 176.16 348.402 175.056 352.802 175.056C357.285 175.056 361.388 176.202 365.11 178.495C368.916 180.704 371.919 183.719 374.119 187.541C376.403 191.278 377.545 195.482 377.545 200.153V210.6C377.545 210.94 377.375 211.11 377.037 211.11H362.826C362.487 211.11 362.318 210.94 362.318 210.6L362.191 200.153C362.191 197.181 361.261 194.76 359.4 192.892C357.538 191.023 355.339 190.089 352.802 190.089C350.179 190.089 347.937 191.108 346.077 193.146C344.215 195.1 343.285 197.435 343.285 200.153C343.285 202.956 343.877 205.292 345.062 207.16C346.245 209.029 348.402 210.812 351.533 212.511C351.955 212.766 352.759 213.233 353.944 213.913C355.213 214.507 356.566 215.229 358.004 216.078C359.442 216.843 360.711 217.523 361.811 218.117C362.995 218.711 363.714 219.093 363.968 219.263C368.197 221.641 371.538 224.572 373.992 228.054C376.445 231.451 377.672 235.655 377.672 240.667C377.672 245.508 376.53 249.882 374.246 253.789C372.046 257.611 369.043 260.668 365.237 262.962C361.514 265.17 357.37 266.274 352.802 266.274ZM387.003 265C386.665 265 386.496 264.788 386.496 264.363L386.623 176.839C386.623 176.5 386.835 176.33 387.257 176.33H401.342C401.765 176.33 401.976 176.5 401.976 176.839L401.849 211.492H420.882V176.839C420.882 176.5 421.052 176.33 421.39 176.33H435.474C435.898 176.33 436.109 176.5 436.109 176.839L436.363 264.363C436.363 264.788 436.151 265 435.728 265H421.517C421.094 265 420.882 264.788 420.882 264.363V226.907H401.849V264.363C401.849 264.788 401.681 265 401.342 265H387.003ZM447.225 265C446.887 265 446.718 264.788 446.718 264.363L446.845 176.839C446.845 176.5 447.014 176.33 447.352 176.33H488.083C488.422 176.33 488.591 176.542 488.591 176.967V191.235C488.591 191.575 488.422 191.745 488.083 191.745H462.071V211.619H488.083C488.422 211.619 488.591 211.79 488.591 212.129L488.718 226.525C488.718 226.865 488.549 227.035 488.21 227.035H462.071V249.33H488.21C488.549 249.33 488.718 249.542 488.718 249.967V264.49C488.718 264.83 488.549 265 488.21 265H447.225ZM500.508 265C500.17 265 500.001 264.788 500.001 264.363L500.255 176.839C500.255 176.5 500.424 176.33 500.762 176.33H526.393C530.961 176.33 535.149 177.476 538.955 179.769C542.846 181.978 545.934 184.993 548.218 188.815C550.502 192.552 551.644 196.798 551.644 201.555C551.644 204.697 551.179 207.543 550.248 210.091C549.317 212.554 548.218 214.677 546.949 216.461C545.68 218.16 544.538 219.434 543.523 220.283C548.091 225.379 550.375 231.366 550.375 238.246L550.502 264.363C550.502 264.788 550.291 265 549.867 265H535.529C535.191 265 535.022 264.873 535.022 264.618V238.246C535.022 235.188 533.922 232.556 531.723 230.347C529.608 228.054 526.985 226.907 523.856 226.907H515.481L515.354 264.363C515.354 264.788 515.185 265 514.847 265H500.508ZM515.481 211.619H526.393C529.015 211.619 531.342 210.643 533.372 208.689C535.402 206.736 536.417 204.358 536.417 201.555C536.417 198.837 535.402 196.502 533.372 194.548C531.426 192.594 529.1 191.618 526.393 191.618H515.481V211.619Z" fill="white"/>
<path d="M441.62 26.9995H434.647V54.9995H420.704V118H427.676V132H434.647V139H441.62V139H448.592V146H469.507V153H155.774V19.9995H441.62V26.9995ZM245.571 47.0483C245.274 47.0483 245.125 47.197 245.125 47.4956L244.901 103.496C244.901 107.602 245.869 111.373 247.802 114.808C249.81 118.243 252.488 121.005 255.834 123.096C259.18 125.112 262.825 126.12 266.766 126.12C270.856 126.12 274.537 125.112 277.809 123.096C281.155 121.08 283.795 118.355 285.729 114.92C287.736 111.486 288.74 107.677 288.74 103.496L288.518 47.4956C288.517 47.197 288.369 47.0483 288.071 47.0483H275.578C275.281 47.0483 275.132 47.197 275.132 47.4956V103.496C275.132 106.034 274.314 108.2 272.678 109.992C271.116 111.709 269.146 112.568 266.766 112.568C264.461 112.568 262.49 111.709 260.854 109.992C259.292 108.2 258.511 106.034 258.511 103.496V47.4956C258.511 47.197 258.362 47.0483 258.064 47.0483H245.571ZM316.513 45.9282C312.645 45.9282 309.039 46.8993 305.692 48.8403C302.421 50.7814 299.78 53.4325 297.772 56.7925C295.765 60.0775 294.76 63.8108 294.76 67.9917C294.76 72.5465 295.727 76.6531 297.66 80.312C299.668 83.896 302.717 86.8829 306.808 89.272C309.039 90.541 311.418 91.8854 313.946 93.3042C316.475 94.7231 318.334 95.7679 319.524 96.4399C323.094 98.4559 324.879 100.845 324.879 103.608C324.879 105.997 324.061 108.088 322.425 109.88C320.789 111.672 318.818 112.568 316.513 112.568C314.207 112.568 312.237 111.709 310.601 109.992C308.964 108.2 308.146 106.072 308.146 103.608V98.4556C308.146 98.0829 307.998 97.8961 307.7 97.896H295.206C294.835 97.8961 294.649 98.0829 294.648 98.4556V103.608C294.648 107.715 295.616 111.486 297.549 114.92C299.557 118.28 302.197 121.005 305.469 123.096C308.815 125.112 312.497 126.12 316.513 126.12C320.528 126.12 324.173 125.15 327.444 123.208C330.791 121.192 333.431 118.504 335.364 115.144C337.372 111.709 338.376 107.864 338.376 103.608C338.376 99.2029 337.297 95.5069 335.141 92.52C332.984 89.4592 330.047 86.8833 326.329 84.7925C326.106 84.6434 325.473 84.3066 324.433 83.7837C323.466 83.2608 322.35 82.6637 321.086 81.9917C319.822 81.2449 318.632 80.6112 317.517 80.0884C316.476 79.4913 315.768 79.08 315.396 78.856C312.645 77.3629 310.749 75.7947 309.708 74.1519C308.667 72.509 308.146 70.4557 308.146 67.9917C308.147 65.6028 308.964 63.5495 310.601 61.8325C312.237 60.0405 314.207 59.144 316.513 59.144C318.743 59.1441 320.676 59.9653 322.312 61.6079C323.949 63.2507 324.767 65.3788 324.767 67.9917L324.879 77.1763C324.879 77.475 325.028 77.6245 325.325 77.6245H337.818C338.116 77.6245 338.265 77.475 338.265 77.1763V67.9917C338.265 63.8849 337.261 60.1888 335.253 56.9038C333.32 53.5439 330.679 50.8927 327.333 48.9517C324.061 46.9357 320.454 45.9283 316.513 45.9282ZM193.968 47.0483C193.596 47.0483 193.41 47.197 193.41 47.4956L193.299 124.44C193.299 124.813 193.447 125 193.745 125H206.35C206.647 125 206.796 124.813 206.796 124.44V91.5122H223.528V124.44C223.528 124.813 223.714 125 224.086 125H236.579C236.951 125 237.138 124.813 237.138 124.44L236.914 47.4956C236.914 47.197 236.728 47.0483 236.356 47.0483H223.975C223.677 47.0483 223.528 47.197 223.528 47.4956V77.9604H206.796L206.907 47.4956C206.907 47.197 206.721 47.0483 206.35 47.0483H193.968ZM346.804 47.0483C346.432 47.0483 346.246 47.197 346.246 47.4956L346.134 124.44C346.134 124.813 346.283 125 346.58 125H359.186C359.483 125 359.632 124.813 359.632 124.44V91.5122H376.364V124.44C376.364 124.813 376.55 125 376.922 125H389.415C389.787 125 389.973 124.813 389.973 124.44L389.75 47.4956C389.75 47.197 389.564 47.0484 389.192 47.0483H376.811C376.513 47.0483 376.364 47.197 376.364 47.4956V77.9604H359.632L359.743 47.4956C359.743 47.197 359.557 47.0483 359.186 47.0483H346.804Z" fill="white"/>
<mask id="mask0_504_383" style="mask-type:luminance" maskUnits="userSpaceOnUse" x="434" y="27" width="120" height="119">
<path d="M434.647 27V146H553.169V27H434.647Z" fill="white"/>
</mask>
<g mask="url(#mask0_504_383)">
<path d="M434.647 109.384H443.765V63.6156H434.647V109.384ZM443.765 63.6156H452.882V54.4617H461.999V45.3078H471.116V36.1539H443.765V45.3078V63.6156ZM471.116 36.1539H516.7V27H471.116V36.1539ZM516.7 36.1539V45.3078H525.817V36.1539H516.7ZM516.7 45.3078H480.233V54.4617H516.7V45.3078ZM480.233 54.4617H471.116V63.6156H480.233V54.4617ZM480.233 63.6156V72.7695H489.35V63.6156H480.233ZM489.35 72.7695V81.9234H498.466V72.7695H489.35ZM498.466 81.9234V91.0766H507.583V81.9234H498.466ZM507.583 91.0766V100.23H516.7V91.0766H507.583ZM516.7 100.23V109.384H525.817V100.23H516.7ZM525.817 109.384V118.538H534.934V109.384H525.817ZM534.934 118.538V127.692H544.052V118.538H534.934ZM544.052 127.692V136.846H534.934V146H544.052H553.169V136.846V127.692H544.052ZM534.934 136.846V127.692H525.817V136.846H534.934ZM525.817 127.692V118.538H516.7V127.692H525.817ZM516.7 118.538V109.384H507.583V118.538H516.7ZM507.583 109.384V100.23H498.466V109.384H507.583ZM498.466 100.23V91.0766H489.35V100.23H498.466ZM489.35 91.0766V81.9234H480.233V91.0766H489.35ZM480.233 81.9234V72.7695H471.116V81.9234H480.233ZM471.116 72.7695V63.6156H461.999V72.7695H471.116ZM461.999 72.7695H452.882V109.384H461.999V72.7695ZM452.882 109.384H443.765V118.538H452.882V109.384Z" fill="white"/>
</g>
<path d="M55.707 147.67C55.707 148.99 55.557 151.09 55.257 153.97C54.777 158.05 54.117 161.35 53.277 163.87C51.777 168.55 49.737 172.21 47.157 174.85C44.577 177.43 41.457 178.72 37.797 178.72C33.957 178.72 31.107 177.55 29.247 175.21C29.187 175.09 29.097 175.06 28.977 175.12C28.857 175.12 28.767 175.21 28.707 175.39L28.527 176.92C28.467 177.22 28.317 177.49 28.077 177.73C27.897 177.91 27.657 178 27.357 178H14.937C14.637 178 14.397 177.91 14.217 177.73C14.037 177.49 13.977 177.22 14.037 176.92L21.507 116.08C21.567 115.78 21.687 115.54 21.867 115.36C22.107 115.12 22.377 115 22.677 115H35.097C35.397 115 35.637 115.12 35.817 115.36C35.997 115.54 36.057 115.78 35.997 116.08L33.837 133.9C33.777 134.08 33.807 134.2 33.927 134.26C34.047 134.26 34.167 134.2 34.287 134.08C36.567 131.86 39.687 130.75 43.647 130.75C47.727 130.75 50.757 132.22 52.737 135.16C54.717 138.1 55.707 142.27 55.707 147.67ZM40.677 154.6C40.737 154.06 40.827 153.28 40.947 152.26C41.067 151.24 41.127 150.34 41.127 149.56C41.127 147.7 40.797 146.23 40.137 145.15C39.477 144.07 38.547 143.53 37.347 143.53C36.207 143.53 35.217 143.95 34.377 144.79C33.537 145.57 32.907 146.65 32.487 148.03C32.127 149.41 31.707 151.6 31.227 154.6C31.167 155.08 31.077 155.86 30.957 156.94C30.837 158.02 30.777 158.95 30.777 159.73C30.777 161.59 31.077 163.09 31.677 164.23C32.337 165.37 33.297 165.94 34.557 165.94C35.757 165.94 36.777 165.52 37.617 164.68C38.457 163.78 39.087 162.61 39.507 161.17C39.987 159.31 40.377 157.12 40.677 154.6ZM55.3013 195.91C55.1213 195.91 55.0013 195.79 54.9413 195.55C54.8213 195.37 54.7913 195.13 54.8513 194.83L56.0213 184.75C56.0813 184.45 56.2013 184.18 56.3813 183.94C56.6213 183.76 56.8613 183.67 57.1013 183.67C60.4613 183.67 62.9213 183.31 64.4813 182.59C66.0413 181.87 67.0613 180.43 67.5413 178.27C67.6013 178.15 67.6013 177.97 67.5413 177.73L60.6113 132.55V132.37C60.6113 131.71 60.9413 131.38 61.6013 131.38H74.9213C75.5813 131.38 75.9113 131.71 75.9113 132.37L77.1713 157.57C77.2313 157.75 77.3213 157.84 77.4413 157.84C77.5613 157.84 77.6513 157.75 77.7113 157.57L85.0913 132.37C85.2713 131.71 85.6913 131.38 86.3513 131.38L99.4913 131.47C99.8513 131.47 100.091 131.59 100.211 131.83C100.331 132.01 100.331 132.28 100.211 132.64L81.5813 178.9C79.6613 183.4 77.8013 186.79 76.0013 189.07C74.2013 191.41 71.7413 193.12 68.6213 194.2C65.5613 195.34 61.3013 195.91 55.8413 195.91H55.3013Z" fill="white"/>
</g>
<defs>
<clipPath id="clip0_504_383">
<rect width="600" height="286" fill="white"/>
</clipPath>
</defs>
</svg>
